<svg width="56" height="56" viewBox="0 0 56 56" fill="none" xmlns="http://www.w3.org/2000/svg">
<g filter="url(#filter0_d_281_6)">
<rect x="4" width="48" height="48" fill="#147EFB"/>
<path d="M35.9517 25.063V26.0713C35.9517 27.974 35.6839 29.6829 35.1484 31.1982C34.6243 32.7021 33.8781 33.9896 32.9097 35.0605C31.9412 36.1201 30.7962 36.9347 29.4746 37.5044C28.153 38.0627 26.6947 38.3418 25.0996 38.3418C23.4932 38.3418 22.0234 38.0627 20.6904 37.5044C19.3688 36.9347 18.2181 36.1201 17.2383 35.0605C16.2699 33.9896 15.5179 32.7021 14.9824 31.1982C14.4583 29.6829 14.1963 27.974 14.1963 26.0713V25.063C14.1963 23.1603 14.4583 21.4513 14.9824 19.936C15.5179 18.4207 16.2642 17.1333 17.2212 16.0737C18.1896 15.0028 19.3346 14.1882 20.6562 13.6299C21.9893 13.0602 23.459 12.7754 25.0654 12.7754C26.6605 12.7754 28.1188 13.0602 29.4404 13.6299C30.7734 14.1882 31.9242 15.0028 32.8926 16.0737C33.861 17.1333 34.613 18.4207 35.1484 19.936C35.6839 21.4513 35.9517 23.1603 35.9517 25.063ZM29.8677 26.0713V25.0288C29.8677 23.7983 29.7594 22.716 29.543 21.7817C29.3379 20.8361 29.0303 20.0443 28.6201 19.4062C28.21 18.7682 27.703 18.2897 27.0991 17.9707C26.5067 17.6403 25.8288 17.4751 25.0654 17.4751C24.2679 17.4751 23.5729 17.6403 22.9805 17.9707C22.388 18.2897 21.8924 18.7682 21.4937 19.4062C21.0949 20.0443 20.793 20.8361 20.5879 21.7817C20.3942 22.716 20.2974 23.7983 20.2974 25.0288V26.0713C20.2974 27.2904 20.3942 28.3727 20.5879 29.3184C20.793 30.2526 21.0949 31.0444 21.4937 31.6938C21.9038 32.3433 22.4051 32.8332 22.9976 33.1636C23.6014 33.494 24.3021 33.6592 25.0996 33.6592C25.863 33.6592 26.5409 33.494 27.1333 33.1636C27.7257 32.8332 28.2214 32.3433 28.6201 31.6938C29.0303 31.0444 29.3379 30.2526 29.543 29.3184C29.7594 28.3727 29.8677 27.2904 29.8677 26.0713ZM37.0796 35.2998C37.0796 34.4795 37.3758 33.7959 37.9683 33.249C38.5607 32.6908 39.3241 32.4116 40.2583 32.4116C41.2039 32.4116 41.9673 32.6908 42.5483 33.249C43.1408 33.7959 43.437 34.4795 43.437 35.2998C43.437 36.1201 43.1408 36.8094 42.5483 37.3677C41.9673 37.9146 41.2039 38.188 40.2583 38.188C39.3241 38.188 38.5607 37.9146 37.9683 37.3677C37.3758 36.8094 37.0796 36.1201 37.0796 35.2998Z" fill="white"/>
</g>
<defs>
<filter id="filter0_d_281_6" x="0" y="0" width="56" height="56" filterUnits="userSpaceOnUse" color-interpolation-filters="sRGB">
<feFlood flood-opacity="0" result="BackgroundImageFix"/>
<feColorMatrix in="SourceAlpha" type="matrix" values="0 0 0 0 0 0 0 0 0 0 0 0 0 0 0 0 0 0 127 0" result="hardAlpha"/>
<feOffset dy="4"/>
<feGaussianBlur stdDeviation="2"/>
<feComposite in2="hardAlpha" operator="out"/>
<feColorMatrix type="matrix" values="0 0 0 0 0 0 0 0 0 0 0 0 0 0 0 0 0 0 0.25 0"/>
<feBlend mode="normal" in2="BackgroundImageFix" result="effect1_dropShadow_281_6"/>
<feBlend mode="normal" in="SourceGraphic" in2="effect1_dropShadow_281_6" result="shape"/>
</filter>
</defs>
</svg>
