<svg width="194" height="49" viewBox="0 0 194 49" fill="none" xmlns="http://www.w3.org/2000/svg">
<path d="M14.0898 22.3994H4.95898L4.91016 17.3701H12.5762C13.9271 17.3701 15.0339 17.1992 15.8965 16.8574C16.7591 16.4993 17.402 15.9867 17.8252 15.3193C18.2646 14.6357 18.4844 13.8057 18.4844 12.8291C18.4844 11.7223 18.2728 10.8271 17.8496 10.1436C17.4427 9.45996 16.7998 8.96354 15.9209 8.6543C15.0583 8.34505 13.9434 8.19043 12.5762 8.19043H7.49805V38H0.173828V2.45312H12.5762C14.6432 2.45312 16.4906 2.64844 18.1182 3.03906C19.762 3.42969 21.1536 4.02376 22.293 4.82129C23.4323 5.61882 24.3031 6.62793 24.9053 7.84863C25.5075 9.05306 25.8086 10.4854 25.8086 12.1455C25.8086 13.6104 25.4749 14.9613 24.8076 16.1982C24.1566 17.4352 23.123 18.4443 21.707 19.2256C20.3073 20.0068 18.4762 20.4382 16.2139 20.5195L14.0898 22.3994ZM13.7725 38H2.95703L5.81348 32.2871H13.7725C15.0583 32.2871 16.1081 32.0837 16.9219 31.6768C17.7357 31.2536 18.3379 30.6839 18.7285 29.9678C19.1191 29.2516 19.3145 28.4297 19.3145 27.502C19.3145 26.4603 19.1354 25.557 18.7773 24.792C18.4355 24.027 17.8822 23.4411 17.1172 23.0342C16.3522 22.611 15.3431 22.3994 14.0898 22.3994H7.03418L7.08301 17.3701H15.8721L17.5566 19.3477C19.7214 19.3151 21.4629 19.6976 22.7812 20.4951C24.1159 21.2764 25.0843 22.2936 25.6865 23.5469C26.305 24.8001 26.6143 26.1429 26.6143 27.5752C26.6143 29.8538 26.1178 31.7744 25.125 33.3369C24.1322 34.8831 22.6755 36.0469 20.7549 36.8281C18.8506 37.6094 16.5231 38 13.7725 38ZM39.0898 0.5V38H32.0342V0.5H39.0898ZM43.7773 25.0605V24.5479C43.7773 22.611 44.054 20.8288 44.6074 19.2012C45.1608 17.5573 45.9665 16.1331 47.0244 14.9287C48.0824 13.7243 49.3844 12.7884 50.9307 12.1211C52.4769 11.4375 54.251 11.0957 56.2529 11.0957C58.2549 11.0957 60.0371 11.4375 61.5996 12.1211C63.1621 12.7884 64.4723 13.7243 65.5303 14.9287C66.6045 16.1331 67.4183 17.5573 67.9717 19.2012C68.5251 20.8288 68.8018 22.611 68.8018 24.5479V25.0605C68.8018 26.9811 68.5251 28.7633 67.9717 30.4072C67.4183 32.0348 66.6045 33.459 65.5303 34.6797C64.4723 35.8841 63.1702 36.82 61.624 37.4873C60.0778 38.1546 58.3037 38.4883 56.3018 38.4883C54.2998 38.4883 52.5176 38.1546 50.9551 37.4873C49.4089 36.82 48.0986 35.8841 47.0244 34.6797C45.9665 33.459 45.1608 32.0348 44.6074 30.4072C44.054 28.7633 43.7773 26.9811 43.7773 25.0605ZM50.8086 24.5479V25.0605C50.8086 26.1673 50.9062 27.2008 51.1016 28.1611C51.2969 29.1214 51.6061 29.9678 52.0293 30.7002C52.4688 31.4163 53.0384 31.9779 53.7383 32.3848C54.4382 32.7917 55.2926 32.9951 56.3018 32.9951C57.2783 32.9951 58.1165 32.7917 58.8164 32.3848C59.5163 31.9779 60.0778 31.4163 60.501 30.7002C60.9242 29.9678 61.2334 29.1214 61.4287 28.1611C61.6403 27.2008 61.7461 26.1673 61.7461 25.0605V24.5479C61.7461 23.4736 61.6403 22.4645 61.4287 21.5205C61.2334 20.5602 60.916 19.7139 60.4766 18.9814C60.0534 18.2327 59.4919 17.6468 58.792 17.2236C58.0921 16.8005 57.2458 16.5889 56.2529 16.5889C55.2601 16.5889 54.4137 16.8005 53.7139 17.2236C53.0303 17.6468 52.4688 18.2327 52.0293 18.9814C51.6061 19.7139 51.2969 20.5602 51.1016 21.5205C50.9062 22.4645 50.8086 23.4736 50.8086 24.5479ZM89.8467 11.584H96.2188V37.1211C96.2188 39.5299 95.6816 41.5726 94.6074 43.249C93.5495 44.9417 92.0684 46.2194 90.1641 47.082C88.2598 47.9609 86.0462 48.4004 83.5234 48.4004C82.4167 48.4004 81.2448 48.2539 80.0078 47.9609C78.7871 47.668 77.6152 47.2122 76.4922 46.5938C75.3854 45.9753 74.4577 45.194 73.709 44.25L76.8096 40.0996C77.6234 41.0436 78.5674 41.776 79.6416 42.2969C80.7158 42.834 81.904 43.1025 83.2061 43.1025C84.4756 43.1025 85.5498 42.8665 86.4287 42.3945C87.3076 41.9388 87.9831 41.2633 88.4551 40.3682C88.9271 39.4893 89.1631 38.4232 89.1631 37.1699V17.6875L89.8467 11.584ZM72.0732 25.1094V24.5967C72.0732 22.5785 72.3174 20.7474 72.8057 19.1035C73.3102 17.4434 74.0182 16.0192 74.9297 14.8311C75.8574 13.6429 76.9805 12.7233 78.2988 12.0723C79.6172 11.4212 81.1064 11.0957 82.7666 11.0957C84.5244 11.0957 85.9974 11.4212 87.1855 12.0723C88.3737 12.7233 89.3503 13.651 90.1152 14.8555C90.8802 16.0436 91.4743 17.4515 91.8975 19.0791C92.3369 20.6904 92.6787 22.4564 92.9229 24.377V25.5C92.6787 27.3392 92.3125 29.0482 91.8242 30.627C91.3359 32.2057 90.693 33.5892 89.8955 34.7773C89.098 35.9492 88.1051 36.8607 86.917 37.5117C85.7451 38.1628 84.3454 38.4883 82.7178 38.4883C81.0902 38.4883 79.6172 38.1546 78.2988 37.4873C76.9967 36.82 75.8818 35.8841 74.9541 34.6797C74.0264 33.4753 73.3102 32.0592 72.8057 30.4316C72.3174 28.804 72.0732 27.0299 72.0732 25.1094ZM79.1045 24.5967V25.1094C79.1045 26.1999 79.2103 27.2171 79.4219 28.1611C79.6335 29.1051 79.959 29.9434 80.3984 30.6758C80.8542 31.3919 81.4157 31.9535 82.083 32.3604C82.7666 32.751 83.5723 32.9463 84.5 32.9463C85.7858 32.9463 86.8356 32.6777 87.6494 32.1406C88.4632 31.5872 89.0736 30.8304 89.4805 29.8701C89.8874 28.9098 90.1234 27.8031 90.1885 26.5498V23.3516C90.1559 22.3262 90.0176 21.4066 89.7734 20.5928C89.5293 19.7627 89.1875 19.0547 88.748 18.4688C88.3086 17.8828 87.7389 17.4271 87.0391 17.1016C86.3392 16.776 85.5091 16.6133 84.5488 16.6133C83.6211 16.6133 82.8154 16.8249 82.1318 17.248C81.4645 17.6549 80.903 18.2165 80.4473 18.9326C80.0078 19.6488 79.6742 20.4951 79.4463 21.4717C79.2184 22.432 79.1045 23.4736 79.1045 24.5967Z" fill="white"/>
<path d="M102.029 34.6064C102.029 33.5648 102.387 32.694 103.104 31.9941C103.836 31.2943 104.804 30.9443 106.009 30.9443C107.213 30.9443 108.174 31.2943 108.89 31.9941C109.622 32.694 109.988 33.5648 109.988 34.6064C109.988 35.6481 109.622 36.5189 108.89 37.2188C108.174 37.9186 107.213 38.2686 106.009 38.2686C104.804 38.2686 103.836 37.9186 103.104 37.2188C102.387 36.5189 102.029 35.6481 102.029 34.6064ZM131.79 32.2383V0.5H138.87V38H132.498L131.79 32.2383ZM115.091 25.1094V24.5967C115.091 22.5785 115.319 20.7474 115.774 19.1035C116.23 17.4434 116.897 16.0192 117.776 14.8311C118.655 13.6429 119.738 12.7233 121.023 12.0723C122.309 11.4212 123.774 11.0957 125.418 11.0957C126.964 11.0957 128.315 11.4212 129.471 12.0723C130.643 12.7233 131.635 13.651 132.449 14.8555C133.279 16.0436 133.947 17.4515 134.451 19.0791C134.956 20.6904 135.322 22.4564 135.55 24.377V25.5C135.322 27.3392 134.956 29.0482 134.451 30.627C133.947 32.2057 133.279 33.5892 132.449 34.7773C131.635 35.9492 130.643 36.8607 129.471 37.5117C128.299 38.1628 126.932 38.4883 125.369 38.4883C123.725 38.4883 122.26 38.1546 120.975 37.4873C119.705 36.82 118.631 35.8841 117.752 34.6797C116.889 33.4753 116.23 32.0592 115.774 30.4316C115.319 28.804 115.091 27.0299 115.091 25.1094ZM122.122 24.5967V25.1094C122.122 26.1999 122.203 27.2171 122.366 28.1611C122.545 29.1051 122.83 29.9434 123.221 30.6758C123.628 31.3919 124.148 31.9535 124.783 32.3604C125.434 32.751 126.224 32.9463 127.151 32.9463C128.356 32.9463 129.349 32.6777 130.13 32.1406C130.911 31.5872 131.505 30.8304 131.912 29.8701C132.335 28.9098 132.579 27.8031 132.645 26.5498V23.3516C132.596 22.3262 132.449 21.4066 132.205 20.5928C131.977 19.7627 131.635 19.0547 131.18 18.4688C130.74 17.8828 130.187 17.4271 129.52 17.1016C128.868 16.776 128.095 16.6133 127.2 16.6133C126.289 16.6133 125.507 16.8249 124.856 17.248C124.205 17.6549 123.676 18.2165 123.27 18.9326C122.879 19.6488 122.586 20.4951 122.391 21.4717C122.212 22.432 122.122 23.4736 122.122 24.5967ZM156.521 38.4883C154.471 38.4883 152.632 38.1628 151.004 37.5117C149.376 36.8444 147.993 35.9248 146.854 34.7529C145.73 33.5811 144.868 32.222 144.266 30.6758C143.663 29.1133 143.362 27.4531 143.362 25.6953V24.7188C143.362 22.7168 143.647 20.8857 144.217 19.2256C144.786 17.5654 145.6 16.125 146.658 14.9043C147.732 13.6836 149.035 12.7477 150.564 12.0967C152.094 11.4294 153.82 11.0957 155.74 11.0957C157.612 11.0957 159.272 11.4049 160.721 12.0234C162.169 12.6419 163.382 13.5208 164.358 14.6602C165.351 15.7995 166.1 17.1667 166.604 18.7617C167.109 20.3405 167.361 22.0983 167.361 24.0352V26.9648H146.365V22.2773H160.452V21.7402C160.452 20.7637 160.273 19.8929 159.915 19.1279C159.573 18.3467 159.052 17.7282 158.353 17.2725C157.653 16.8167 156.757 16.5889 155.667 16.5889C154.739 16.5889 153.942 16.7923 153.274 17.1992C152.607 17.6061 152.062 18.1758 151.639 18.9082C151.232 19.6406 150.923 20.5033 150.711 21.4961C150.516 22.4727 150.418 23.5469 150.418 24.7188V25.6953C150.418 26.7533 150.564 27.7298 150.857 28.625C151.167 29.5202 151.598 30.2933 152.151 30.9443C152.721 31.5954 153.405 32.0999 154.202 32.458C155.016 32.8161 155.936 32.9951 156.961 32.9951C158.23 32.9951 159.41 32.751 160.501 32.2627C161.608 31.7581 162.56 31.0013 163.357 29.9922L166.775 33.7031C166.222 34.5007 165.465 35.2656 164.505 35.998C163.561 36.7305 162.422 37.3327 161.087 37.8047C159.752 38.2604 158.23 38.4883 156.521 38.4883ZM180.008 32.873L185.867 11.584H193.216L184.305 38H179.861L180.008 32.873ZM175.979 11.584L181.863 32.8975L181.985 38H177.518L168.606 11.584H175.979Z" fill="#147EFB"/>
</svg>
