<svg xmlns="http://www.w3.org/2000/svg" xmlns:xlink="http://www.w3.org/1999/xlink" viewBox="0,0,256,256" width="100px" height="100px"><g fill-opacity="0.80392" fill="#0c6cfd" fill-rule="nonzero" stroke="none" stroke-width="1" stroke-linecap="butt" stroke-linejoin="miter" stroke-miterlimit="10" stroke-dasharray="" stroke-dashoffset="0" font-family="none" font-weight="none" font-size="none" text-anchor="none" style="mix-blend-mode: normal"><g transform="scale(8,8)"><path d="M11.4043,3.35938c-0.84531,-0.05606 -1.67608,0.09519 -2.4043,0.51563c-0.97096,0.56058 -1.61754,1.51746 -1.96484,2.61914c-0.3473,1.10169 -0.42757,2.37132 -0.30078,3.75781c0.01284,0.14044 0.03755,0.28683 0.05469,0.42969c-0.13254,0.05669 -0.27211,0.10876 -0.40039,0.16797c-1.26413,0.58345 -2.32308,1.28706 -3.10352,2.13867c-0.78044,0.85161 -1.28516,1.89055 -1.28516,3.01172c0,1.12117 0.50472,2.16011 1.28516,3.01172c0.78044,0.85161 1.83939,1.55523 3.10352,2.13867c0.12828,0.0592 0.26785,0.11128 0.40039,0.16797c-0.01714,0.14286 -0.04185,0.28925 -0.05469,0.42969c-0.12679,1.38649 -0.04652,2.65613 0.30078,3.75781c0.3473,1.10168 0.99389,2.05856 1.96484,2.61914c0.97096,0.56058 2.12226,0.64265 3.25,0.39258c1.12774,-0.25007 2.26695,-0.8161 3.4043,-1.61914c0.11515,-0.0813 0.23061,-0.17549 0.3457,-0.26172c0.1151,0.08623 0.23056,0.18042 0.3457,0.26172c1.13734,0.80305 2.27656,1.36907 3.4043,1.61914c1.12774,0.25007 2.27904,0.16801 3.25,-0.39258c0.97096,-0.56058 1.61754,-1.51746 1.96484,-2.61914c0.3473,-1.10168 0.42757,-2.37132 0.30078,-3.75781c-0.01284,-0.14044 -0.03755,-0.28683 -0.05469,-0.42969c0.13254,-0.05669 0.27211,-0.10876 0.40039,-0.16797c1.26413,-0.58344 2.32308,-1.28706 3.10352,-2.13867c0.78044,-0.85161 1.28516,-1.89055 1.28516,-3.01172c0,-1.12117 -0.50472,-2.16011 -1.28516,-3.01172c-0.78044,-0.85161 -1.83939,-1.55523 -3.10352,-2.13867c-0.12828,-0.0592 -0.26785,-0.11128 -0.40039,-0.16797c0.01714,-0.14286 0.04185,-0.28925 0.05469,-0.42969c0.12679,-1.38649 0.04652,-2.65613 -0.30078,-3.75781c-0.3473,-1.10168 -0.99389,-2.05856 -1.96484,-2.61914c-0.97096,-0.56058 -2.12226,-0.64265 -3.25,-0.39258c-1.12774,0.25007 -2.26695,0.81609 -3.4043,1.61914c-0.11515,0.0813 -0.23061,0.17549 -0.3457,0.26172c-0.1151,-0.08623 -0.23056,-0.18042 -0.3457,-0.26172c-1.13734,-0.80305 -2.27656,-1.36907 -3.4043,-1.61914c-0.28193,-0.06252 -0.56393,-0.10436 -0.8457,-0.12305zM11.27344,5.35156c0.17041,0.01283 0.35157,0.04111 0.54492,0.08398c0.75569,0.16757 1.66069,0.59172 2.61524,1.25586c-0.79501,0.75417 -1.57739,1.61215 -2.32422,2.57227c-1.20353,0.16669 -2.33716,0.41351 -3.38672,0.72461c-0.09774,-1.15826 -0.0139,-2.15458 0.21875,-2.89258c0.23818,-0.75555 0.59467,-1.22044 1.05859,-1.48828c0.34794,-0.20088 0.7622,-0.29435 1.27344,-0.25586zM20.72656,5.35156c0.51124,-0.03849 0.9255,0.05498 1.27344,0.25586c0.46392,0.26784 0.82041,0.73273 1.05859,1.48828c0.23265,0.73799 0.31649,1.73432 0.21875,2.89258c-1.04956,-0.3111 -2.18319,-0.55792 -3.38672,-0.72461c-0.74682,-0.96012 -1.5292,-1.81809 -2.32422,-2.57227c0.95454,-0.66414 1.85955,-1.08829 2.61523,-1.25586c0.19335,-0.04288 0.37451,-0.07115 0.54492,-0.08398zM16,7.95898c0.35149,0.32498 0.70236,0.68635 1.05273,1.06445c-0.34872,-0.01233 -0.69724,-0.02344 -1.05273,-0.02344c-0.35549,0 -0.70401,0.01111 -1.05273,0.02344c0.35038,-0.3781 0.70124,-0.73948 1.05273,-1.06445zM16,11c0.96454,0 1.89939,0.05672 2.79883,0.15234c0.53253,0.73112 1.04898,1.51235 1.53125,2.34766c0.4823,0.83537 0.90065,1.67319 1.26758,2.5c-0.36693,0.82681 -0.78528,1.66463 -1.26758,2.5c-0.48227,0.83531 -0.99872,1.61653 -1.53125,2.34766c-0.89944,0.09562 -1.83429,0.15234 -2.79883,0.15234c-0.96454,0 -1.89939,-0.05672 -2.79883,-0.15234c-0.53253,-0.73112 -1.04898,-1.51235 -1.53125,-2.34766c-0.4823,-0.83537 -0.90065,-1.67319 -1.26758,-2.5c0.36692,-0.82681 0.78528,-1.66463 1.26758,-2.5c0.48227,-0.83531 0.99872,-1.61653 1.53125,-2.34766c0.89944,-0.09562 1.83429,-0.15234 2.79883,-0.15234zM10.48438,11.59961c-0.18503,0.29582 -0.36914,0.59254 -0.54687,0.90039c-0.17774,0.30785 -0.34219,0.61568 -0.50586,0.92383c-0.15202,-0.49176 -0.28894,-0.97712 -0.39453,-1.44336c0.45701,-0.14187 0.94483,-0.2665 1.44727,-0.38086zM21.51563,11.59961c0.50243,0.11436 0.99025,0.23899 1.44727,0.38086c-0.10559,0.46624 -0.24251,0.9516 -0.39453,1.44336c-0.16367,-0.30815 -0.32812,-0.61598 -0.50586,-0.92383c-0.17774,-0.30785 -0.36184,-0.60457 -0.54687,-0.90039zM7.1543,12.70313c0.25556,1.06537 0.60847,2.17028 1.06641,3.29688c-0.45793,1.12659 -0.81084,2.2315 -1.06641,3.29688c-1.05149,-0.49438 -1.87189,-1.06642 -2.39453,-1.63672c-0.53523,-0.58405 -0.75977,-1.12447 -0.75977,-1.66016c0,-0.53569 0.22453,-1.07611 0.75977,-1.66016c0.52264,-0.5703 1.34304,-1.14234 2.39453,-1.63672zM24.8457,12.70313c1.05149,0.49438 1.87189,1.06642 2.39453,1.63672c0.53523,0.58405 0.75977,1.12447 0.75977,1.66016c0,0.53569 -0.22453,1.07611 -0.75977,1.66016c-0.52264,0.5703 -1.34304,1.14234 -2.39453,1.63672c-0.25556,-1.06537 -0.60847,-2.17028 -1.06641,-3.29687c0.45793,-1.12659 0.81084,-2.2315 1.06641,-3.29687zM16,13c-1.64501,0 -3,1.35499 -3,3c0,1.64501 1.35499,3 3,3c1.64501,0 3,-1.35499 3,-3c0,-1.64501 -1.35499,-3 -3,-3zM16,15c0.56413,0 1,0.43587 1,1c0,0.56413 -0.43587,1 -1,1c-0.56413,0 -1,-0.43587 -1,-1c0,-0.56413 0.43587,-1 1,-1zM9.43164,18.57617c0.16367,0.30815 0.32812,0.61598 0.50586,0.92383c0.17774,0.30785 0.36185,0.60457 0.54688,0.90039c-0.50243,-0.11436 -0.99025,-0.23899 -1.44727,-0.38086c0.10559,-0.46624 0.24251,-0.9516 0.39453,-1.44336zM22.56836,18.57617c0.15202,0.49176 0.28894,0.97712 0.39453,1.44336c-0.45701,0.14187 -0.94483,0.2665 -1.44727,0.38086c0.18503,-0.29582 0.36914,-0.59254 0.54688,-0.90039c0.17774,-0.30785 0.34219,-0.61568 0.50586,-0.92383zM8.72266,22.01172c1.04956,0.3111 2.18319,0.55792 3.38672,0.72461c0.74682,0.96012 1.5292,1.81809 2.32422,2.57227c-0.95454,0.66414 -1.85955,1.08829 -2.61524,1.25586c-0.77342,0.1715 -1.35444,0.09597 -1.81836,-0.17187c-0.46392,-0.26785 -0.82041,-0.73273 -1.05859,-1.48828c-0.23265,-0.73799 -0.31649,-1.73432 -0.21875,-2.89258zM23.27734,22.01172c0.09774,1.15826 0.0139,2.15458 -0.21875,2.89258c-0.23818,0.75555 -0.59467,1.22044 -1.05859,1.48828c-0.46392,0.26784 -1.04494,0.34338 -1.81836,0.17188c-0.75568,-0.16757 -1.66069,-0.59172 -2.61523,-1.25586c0.79501,-0.75417 1.57739,-1.61215 2.32422,-2.57227c1.20353,-0.16669 2.33716,-0.41351 3.38672,-0.72461zM14.94727,22.97656c0.34872,0.01233 0.69724,0.02344 1.05273,0.02344c0.35549,0 0.70401,-0.01111 1.05273,-0.02344c-0.35038,0.3781 -0.70124,0.73948 -1.05273,1.06445c-0.35149,-0.32498 -0.70236,-0.68635 -1.05273,-1.06445z"></path></g></g></svg>