<svg xmlns="http://www.w3.org/2000/svg" xmlns:xlink="http://www.w3.org/1999/xlink" viewBox="0,0,256,256" width="100px" height="100px"><g fill="#cc6699" fill-rule="nonzero" stroke="none" stroke-width="1" stroke-linecap="butt" stroke-linejoin="miter" stroke-miterlimit="10" stroke-dasharray="" stroke-dashoffset="0" font-family="none" font-weight="none" font-size="none" text-anchor="none" style="mix-blend-mode: normal"><g transform="scale(8,8)"><path d="M15.14453,5.01367c-1.41329,-0.07459 -3.00227,0.14202 -4.55664,0.68164c-2.47,0.857 -5.1415,2.20494 -7.0625,3.96094c-2.282,2.09 -2.64805,3.90892 -2.49805,4.66992c0.534,2.699 4.34028,4.45972 5.86328,5.76172c-0.075,0.041 -0.14494,0.07628 -0.21094,0.11328c-0.764,0.371 -3.59822,1.82848 -4.32422,3.39648c-0.82,1.778 0.13567,3.05061 0.76367,3.22461c1.959,0.532 3.89761,-0.39775 4.97461,-1.96875c1.078,-1.572 0.94817,-3.62359 0.45117,-4.55859c-0.005,-0.014 -0.01453,-0.02311 -0.01953,-0.03711c0.197,-0.115 0.39761,-0.2307 0.59961,-0.3457c0.389,-0.225 0.76856,-0.43038 1.10156,-0.60937c-0.188,0.495 -0.32353,1.09212 -0.39453,1.95313c-0.084,1.008 0.34153,2.31217 0.89453,2.82617c0.244,0.225 0.5387,0.23047 0.7207,0.23047c0.647,0 0.93776,-0.52248 1.25976,-1.14648c0.398,-0.761 0.75,-1.64453 0.75,-1.64453c0,0 -0.43938,2.39063 0.76563,2.39063c0.44,0 0.88112,-0.55389 1.07813,-0.83789v0.00391c0,0 0.00725,-0.01769 0.03125,-0.05469c0.047,-0.069 0.07031,-0.10937 0.07031,-0.10938v-0.01367c0.178,-0.298 0.5683,-0.98042 1.1543,-2.10742c0.759,-1.457 1.48438,-3.27734 1.48438,-3.27734c0.07,0.4 0.16701,0.79464 0.29102,1.18164c0.131,0.435 0.40891,0.912 0.62891,1.375c-0.178,0.238 -0.28711,0.375 -0.28711,0.375c0,0.004 0.00286,0.00777 0.00586,0.00977c-0.141,0.183 -0.30084,0.37927 -0.46484,0.57227c-0.6,0.697 -1.31325,1.49561 -1.40625,1.72461c-0.113,0.27 -0.08414,0.47095 0.13086,0.62695c0.159,0.119 0.44233,0.13724 0.73633,0.11523c0.539,-0.037 0.91856,-0.16605 1.10156,-0.24805c0.337,-0.118 0.65531,-0.28037 0.94531,-0.48437c0.586,-0.422 0.94316,-1.02722 0.91016,-1.82422c-0.019,-0.44 -0.16575,-0.88097 -0.34375,-1.29297c0.052,-0.073 0.10916,-0.15052 0.16016,-0.22852c0.928,-1.324 1.64453,-2.77734 1.64453,-2.77734c0.07,0.4 0.16702,0.79464 0.29102,1.18164c0.113,0.371 0.33316,0.77873 0.53516,1.17773c-0.871,0.692 -1.41161,1.49448 -1.59961,2.02148c-0.347,0.976 -0.0735,1.41462 0.4375,1.51563c0.23,0.046 0.55678,-0.0582 0.80078,-0.1582c0.362,-0.118 0.70272,-0.28976 1.01172,-0.50977c0.586,-0.422 1.15323,-1.01245 1.11523,-1.81445c-0.014,-0.362 -0.11595,-0.72427 -0.25195,-1.07227c0.736,-0.302 1.69116,-0.46708 2.91016,-0.33008c2.61,0.298 3.12144,1.89264 3.02344,2.55664c-0.098,0.665 -0.64708,1.03648 -0.83008,1.14648c-0.183,0.11 -0.23861,0.15138 -0.22461,0.23438c0.023,0.119 0.10672,0.11394 0.26172,0.08594c0.216,-0.037 1.36792,-0.54044 1.41992,-1.77344c0.07496,-1.55721 -1.45553,-3.27006 -4.16797,-3.25781h-0.00391c-0.94166,0.00058 -1.87002,0.21171 -2.71484,0.61914c-0.277,-0.545 -0.56338,-1.02191 -0.60937,-1.37891c-0.056,-0.417 -0.11578,-0.6642 -0.05078,-1.1582c0.066,-0.495 0.36047,-1.19705 0.35547,-1.24805c-0.005,-0.05 -0.06592,-0.30164 -0.66992,-0.30664c-0.604,-0.005 -1.12555,0.11453 -1.18555,0.26953c-0.107,0.285 -0.19005,0.577 -0.24805,0.875c-0.108,0.536 -1.20903,2.45217 -1.83203,3.45117c-0.206,-0.39 -0.37902,-0.73281 -0.41602,-1.00781c-0.056,-0.417 -0.11773,-0.6642 -0.05273,-1.1582c0.066,-0.495 0.36242,-1.19705 0.35742,-1.24805c-0.005,-0.05 -0.06592,-0.30164 -0.66992,-0.30664c-0.604,-0.005 -1.1265,0.11453 -1.1875,0.26953c-0.061,0.156 -0.12705,0.522 -0.24805,0.875c-0.122,0.353 -1.58866,3.54405 -1.97266,4.37305c-0.197,0.422 -0.36628,0.76123 -0.48828,0.99023c-0.019,0.037 -0.03202,0.06013 -0.04101,0.07812c0.014,-0.023 0.02344,-0.04611 0.02344,-0.03711c-0.103,0.197 -0.16406,0.30664 -0.16406,0.30664v0.00391c-0.08,0.147 -0.16894,0.28125 -0.21094,0.28125c-0.028,0 -0.08933,-0.38511 0.01367,-0.91211c0.22,-1.109 0.74133,-2.83258 0.73633,-2.89258c-0.005,-0.032 0.09625,-0.33023 -0.34375,-0.49023c-0.427,-0.151 -0.57919,0.10156 -0.61719,0.10156c-0.038,0 -0.06641,0.0918 -0.06641,0.0918c0,0 0.47184,-1.94336 -0.91016,-1.94336c-0.863,0 -2.06334,0.92567 -2.65234,1.76367c-0.37,0.197 -1.17162,0.62412 -2.01562,1.07813c-0.323,0.174 -0.65475,0.35248 -0.96875,0.52148c-0.023,-0.023 -0.04241,-0.04536 -0.06641,-0.06836c-1.678,-1.751 -4.77553,-2.98884 -4.64453,-5.33984c0.047,-0.857 0.35303,-3.10589 5.95703,-5.83789c4.594,-2.236 8.26644,-1.62281 8.89844,-0.25781c0.909,1.948 -1.96438,5.5737 -6.73438,6.0957c-1.818,0.197 -2.65553,-0.57113 -2.89453,-0.82812c-0.248,-0.27 -0.28686,-0.28438 -0.38086,-0.23437c-0.155,0.082 -0.056,0.32089 0,0.46289c0.141,0.362 0.76762,0.929 1.76563,1.25c0.877,0.28 2.89075,0.51506 5.46875,-0.46094c2.896,-1.091 5.10826,-4.05466 4.44727,-6.59766c-0.42063,-1.61562 -2.28904,-2.55146 -4.64453,-2.67578zM13.60742,17.28906c0.0733,0.00541 0.1277,0.03248 0.1582,0.08398c0.164,0.271 -0.56981,2.26584 -0.75781,2.71484c-0.3,0.72 -0.93336,2.55403 -1.31836,2.45703c-0.328,-0.082 -0.53041,-1.48047 -0.06641,-2.85547c0.234,-0.692 0.73134,-1.51689 1.02734,-1.83789c0.35475,-0.3885 0.73714,-0.57872 0.95703,-0.5625zM23.34766,19.55078c0.055,0.16 0.08389,0.32809 0.08789,0.49609c-0.005,1.032 -0.75889,1.41617 -1.21289,1.57617c-0.094,-0.064 -0.08158,-0.28022 0.23242,-0.94922c0.122,-0.261 0.40458,-0.70105 0.89258,-1.12305zM7.60352,20.6875c0.389,1.393 0.01447,2.62184 -0.89453,3.58984c-0.862,0.921 -2.0718,1.26956 -2.5918,0.97656c-0.558,-0.317 -0.33744,-1.67425 0.72656,-2.65625c0.647,-0.596 1.48216,-1.14538 2.03516,-1.48437c0.127,-0.073 0.3082,-0.18341 0.5332,-0.31641c0.038,-0.023 0.05664,-0.03125 0.05664,-0.03125c0.042,-0.027 0.08777,-0.05013 0.13477,-0.07812zM19.38086,20.84766c0,0.023 0.00586,0.04722 0.00586,0.07422c-0.006,0.82 -0.81369,1.37375 -1.17969,1.59375h0.00391v0.00195c-0.127,0.064 -0.24478,0.10427 -0.30078,0.07227c-0.042,-0.023 0.05273,-0.10937 0.05273,-0.10937c0,0 0.6512,-0.68409 0.9082,-0.99609c0.15,-0.183 0.32277,-0.39872 0.50977,-0.63672z"></path></g></g></svg>