<svg width="260" height="249" viewBox="0 0 260 249" fill="none" xmlns="http://www.w3.org/2000/svg">
<path d="M250 124.068C250 186.632 196.719 238.137 130 238.137C63.2806 238.137 10 186.632 10 124.068C10 61.5051 63.2806 10 130 10C196.719 10 250 61.5051 250 124.068Z" fill="white" stroke="#00BFD1" stroke-width="20"/>
<path d="M217 124.5C217 167.853 179.514 204 132 204C84.4856 204 47 167.853 47 124.5C47 81.1468 84.4856 45 132 45C179.514 45 217 81.1468 217 124.5Z" fill="white" stroke="#007ACC" stroke-width="20"/>
<path d="M145.92 146.32C145.92 148.48 145.88 150.56 145.8 152.56C145.72 154.56 145.6 156.08 145.44 157.12C146.8 156.96 148.44 156.88 150.36 156.88C152.28 156.8 153.64 156.76 154.44 156.76V166H120.24V158.08H120.96C122.8 158.08 124.36 157.88 125.64 157.48C127 157.08 128.04 156.16 128.76 154.72C129.56 153.2 129.96 150.84 129.96 147.64V144.28H97.44V133L138.6 80.08H145.92V133.48H157.68V144.28H145.92V146.32ZM129.84 105.28L108.6 133.12L129.96 133.24L130.08 105.28H129.84Z" fill="#2E2D2E"/>
</svg>
