<svg width="260" height="249" viewBox="0 0 260 249" fill="none" xmlns="http://www.w3.org/2000/svg">
<path d="M250 124.068C250 186.632 196.719 238.137 130 238.137C63.2806 238.137 10 186.632 10 124.068C10 61.5051 63.2806 10 130 10C196.719 10 250 61.5051 250 124.068Z" fill="white" stroke="#00BFD1" stroke-width="20"/>
<path d="M217 124.5C217 167.853 179.514 204 132 204C84.4856 204 47 167.853 47 124.5C47 81.1468 84.4856 45 132 45C179.514 45 217 81.1468 217 124.5Z" fill="white" stroke="#007ACC" stroke-width="20"/>
<path d="M107.68 166C107.68 161.84 108.2 158.12 109.24 154.84C110.36 151.56 111.8 148.6 113.56 145.96C115.4 143.32 117.4 140.88 119.56 138.64C121.8 136.4 124.08 134.2 126.4 132.04C132.24 126.6 136.36 121.68 138.76 117.28C141.24 112.88 142.48 108.52 142.48 104.2C142.48 101.64 142.16 99.16 141.52 96.76C140.88 94.36 139.72 92.4 138.04 90.88C136.36 89.28 134 88.52 130.96 88.6C128.8 88.6 126.84 89.12 125.08 90.16C123.4 91.12 122.12 92.28 121.24 93.64C122.12 94.52 122.72 95.56 123.04 96.76C123.44 97.96 123.64 99 123.64 99.88C123.64 100.76 123.36 101.84 122.8 103.12C122.24 104.32 121.36 105.36 120.16 106.24C119.04 107.12 117.48 107.56 115.48 107.56C113 107.4 111.08 106.48 109.72 104.8C108.44 103.12 107.8 101.12 107.8 98.8C107.8 96.96 108.36 95 109.48 92.92C110.6 90.76 112.28 88.72 114.52 86.8C116.76 84.8 119.48 83.2 122.68 82C125.96 80.72 129.72 80.08 133.96 80.08C137.16 80.08 140.32 80.48 143.44 81.28C146.64 82.08 149.56 83.36 152.2 85.12C154.84 86.88 156.92 89.2 158.44 92.08C160.04 94.96 160.84 98.52 160.84 102.76C160.84 104.76 160.48 106.88 159.76 109.12C159.04 111.28 157.72 113.68 155.8 116.32C153.88 118.88 151.2 121.84 147.76 125.2C144.32 128.56 139.88 132.48 134.44 136.96C130.04 140.56 126.8 143.84 124.72 146.8C122.64 149.76 121.4 152.04 121 153.64L144.52 154.24C146.36 154.32 147.92 154.2 149.2 153.88C150.56 153.48 151.6 152.72 152.32 151.6C153.12 150.4 153.52 148.68 153.52 146.44H161.2L160.24 166H107.68Z" fill="#2E2D2E"/>
</svg>
